# xmcd CD database file
#
# Track frame offsets:
#	150
#	24892
#	41142
#	68762
#	83075
#	100670
#	112254
#	137510
#	155165
#	173955
#	188095
#	204452
#
# Disc length: 2981 seconds
#
# Revision: 0
# Processed by: cddbd v1.5.1PL0 Copyright (c) Steve Scherf et al.
# Submitted via: CDex 1.50beta9
#
DISCID=9e0ba30c
DTITLE=JOHN NELSON - Favourite Songs From Ireland
DYEAR=1900
DGENRE=Country
TTITLE0=Medley - Old Dungarvan Oak-Cottage In The country-Pretty Litte Girl From Omagh-21 Acres Of Land-Hard Time Lovin Can Bring
TTITLE1=A Sorig Of Irish Heather
TTITLE2=Medley - Blue Eyes Cryin In The Rain-Jealous Heart-Just Walk On By-Red River Valley
TTITLE3=Medley - Courtin In The kitchen-One Eyed Reilly-50 Years Ago-It's A Long Way To Tipperary-Pack Up Your TYroubles
TTITLE4=Medley - Notherm Lights Of Old Aberdeen-I Belong To Glasgow-Will Ye Go Lassie Go
TTITLE5=Silver Lady
TTITLE6=Medley - Roads OF Kidare-Galway Shawl-One Day At A Time-Anna Friom Fermanagh
TTITLE7=Medley - Do What You Do Do Well-Railroad Steamboat-Good Hearted-Woman-Jambalaya
TTITLE8=An Irish Harvest Day
TTITLE9=Maggie
TTITLE10=Medley - Bold O'Donoghue-McNamara's Band Of The Roses-Dan O'Hara
TTITLE11=Medley - Green Glens Of Antrim-Lovely-40 Shades Of Green-A Mother's Love's A Blessing
EXTD=
EXTT0=
EXTT1=
EXTT2=
EXTT3=
EXTT4=
EXTT5=
EXTT6=
EXTT7=
EXTT8=
EXTT9=
EXTT10=
EXTT11=
PLAYORDER=
